<mxfile host="app.diagrams.net" agent="Mozilla/5.0 (Windows NT 10.0; Win64; x64; rv:142.0) Gecko/20100101 Firefox/142.0" version="28.1.1" pages="2">
  <diagram id="yPxyJZ8AM_hMuL3Unpa9" name="complex gitflow">
    <mxGraphModel dx="1253" dy="686" grid="1" gridSize="10" guides="1" tooltips="1" connect="1" arrows="1" fold="1" page="1" pageScale="1" pageWidth="850" pageHeight="1100" math="0" shadow="0">
      <root>
        <mxCell id="0" />
        <mxCell id="1" parent="0" />
        <mxCell id="20Seymmh2c90RRw8AyVu-199" value="" style="endArrow=none;dashed=1;html=1;rounded=0;entryX=0;entryY=0.5;entryDx=0;entryDy=0;strokeColor=light-dark(#000000,#FF9999);" edge="1" parent="1" source="20Seymmh2c90RRw8AyVu-230" target="20Seymmh2c90RRw8AyVu-179">
          <mxGeometry width="50" height="50" relative="1" as="geometry">
            <mxPoint x="10" y="104.5" as="sourcePoint" />
            <mxPoint x="700" y="104.5" as="targetPoint" />
          </mxGeometry>
        </mxCell>
        <mxCell id="20Seymmh2c90RRw8AyVu-200" value="" style="endArrow=none;dashed=1;html=1;rounded=0;entryX=0;entryY=0.5;entryDx=0;entryDy=0;strokeColor=light-dark(#000000,#FFCC99);" edge="1" parent="1" source="20Seymmh2c90RRw8AyVu-222" target="20Seymmh2c90RRw8AyVu-180">
          <mxGeometry width="50" height="50" relative="1" as="geometry">
            <mxPoint x="10" y="154.5" as="sourcePoint" />
            <mxPoint x="700" y="154.5" as="targetPoint" />
          </mxGeometry>
        </mxCell>
        <mxCell id="20Seymmh2c90RRw8AyVu-201" value="" style="endArrow=none;dashed=1;html=1;rounded=0;entryX=0;entryY=0.5;entryDx=0;entryDy=0;strokeColor=light-dark(#000000,#FFCC99);" edge="1" parent="1" source="20Seymmh2c90RRw8AyVu-219" target="20Seymmh2c90RRw8AyVu-181">
          <mxGeometry width="50" height="50" relative="1" as="geometry">
            <mxPoint x="10" y="184.5" as="sourcePoint" />
            <mxPoint x="700" y="184.5" as="targetPoint" />
          </mxGeometry>
        </mxCell>
        <mxCell id="20Seymmh2c90RRw8AyVu-203" value="" style="endArrow=none;dashed=1;html=1;rounded=0;entryX=0;entryY=0.5;entryDx=0;entryDy=0;strokeColor=light-dark(#000000,#FF99FF);" edge="1" parent="1" source="20Seymmh2c90RRw8AyVu-251" target="20Seymmh2c90RRw8AyVu-184">
          <mxGeometry width="50" height="50" relative="1" as="geometry">
            <mxPoint x="10" y="284.5" as="sourcePoint" />
            <mxPoint x="700" y="284.5" as="targetPoint" />
          </mxGeometry>
        </mxCell>
        <mxCell id="20Seymmh2c90RRw8AyVu-235" value="" style="endArrow=none;dashed=1;html=1;rounded=0;entryX=0;entryY=0.5;entryDx=0;entryDy=0;strokeColor=light-dark(#000000,#9999FF);" edge="1" parent="1" source="20Seymmh2c90RRw8AyVu-225" target="20Seymmh2c90RRw8AyVu-233">
          <mxGeometry width="50" height="50" relative="1" as="geometry">
            <mxPoint x="40" y="65" as="sourcePoint" />
            <mxPoint x="700" y="65" as="targetPoint" />
          </mxGeometry>
        </mxCell>
        <mxCell id="20Seymmh2c90RRw8AyVu-237" value="" style="endArrow=none;dashed=1;html=1;rounded=0;entryX=0;entryY=0.5;entryDx=0;entryDy=0;strokeColor=light-dark(#000000,#CCFF99);" edge="1" parent="1" source="20Seymmh2c90RRw8AyVu-227" target="20Seymmh2c90RRw8AyVu-236">
          <mxGeometry width="50" height="50" relative="1" as="geometry">
            <mxPoint x="530" y="235" as="sourcePoint" />
            <mxPoint x="740" y="235" as="targetPoint" />
          </mxGeometry>
        </mxCell>
        <mxCell id="20Seymmh2c90RRw8AyVu-198" value="" style="endArrow=none;dashed=1;html=1;rounded=0;entryX=0;entryY=0.5;entryDx=0;entryDy=0;strokeColor=light-dark(#000000,#9999FF);" edge="1" parent="1" source="20Seymmh2c90RRw8AyVu-233" target="20Seymmh2c90RRw8AyVu-178">
          <mxGeometry width="50" height="50" relative="1" as="geometry">
            <mxPoint x="10" y="65" as="sourcePoint" />
            <mxPoint x="710" y="330" as="targetPoint" />
          </mxGeometry>
        </mxCell>
        <mxCell id="20Seymmh2c90RRw8AyVu-202" value="" style="endArrow=none;dashed=1;html=1;rounded=0;entryX=0;entryY=0.5;entryDx=0;entryDy=0;strokeColor=light-dark(#000000,#CCFF99);" edge="1" parent="1" source="20Seymmh2c90RRw8AyVu-236" target="20Seymmh2c90RRw8AyVu-183">
          <mxGeometry width="50" height="50" relative="1" as="geometry">
            <mxPoint x="10" y="234.5" as="sourcePoint" />
            <mxPoint x="700" y="234.5" as="targetPoint" />
          </mxGeometry>
        </mxCell>
        <mxCell id="20Seymmh2c90RRw8AyVu-206" value="" style="endArrow=none;dashed=1;html=1;rounded=0;entryX=0;entryY=0.5;entryDx=0;entryDy=0;" edge="1" parent="1" target="20Seymmh2c90RRw8AyVu-204">
          <mxGeometry width="50" height="50" relative="1" as="geometry">
            <mxPoint x="10" y="65" as="sourcePoint" />
            <mxPoint x="700" y="65" as="targetPoint" />
          </mxGeometry>
        </mxCell>
        <mxCell id="20Seymmh2c90RRw8AyVu-210" style="edgeStyle=orthogonalEdgeStyle;rounded=1;orthogonalLoop=1;jettySize=auto;html=1;exitX=1;exitY=0.5;exitDx=0;exitDy=0;entryX=0;entryY=0.5;entryDx=0;entryDy=0;curved=0;" edge="1" parent="1" source="20Seymmh2c90RRw8AyVu-204" target="20Seymmh2c90RRw8AyVu-207">
          <mxGeometry relative="1" as="geometry" />
        </mxCell>
        <mxCell id="20Seymmh2c90RRw8AyVu-204" value="" style="ellipse;whiteSpace=wrap;html=1;aspect=fixed;" vertex="1" parent="1">
          <mxGeometry x="10" y="50" width="30" height="30" as="geometry" />
        </mxCell>
        <mxCell id="20Seymmh2c90RRw8AyVu-209" value="" style="endArrow=none;dashed=1;html=1;rounded=0;entryX=0;entryY=0.5;entryDx=0;entryDy=0;" edge="1" parent="1" target="20Seymmh2c90RRw8AyVu-207">
          <mxGeometry width="50" height="50" relative="1" as="geometry">
            <mxPoint x="10" y="234.5" as="sourcePoint" />
            <mxPoint x="700" y="234.5" as="targetPoint" />
          </mxGeometry>
        </mxCell>
        <mxCell id="20Seymmh2c90RRw8AyVu-213" style="edgeStyle=orthogonalEdgeStyle;rounded=1;orthogonalLoop=1;jettySize=auto;html=1;exitX=1;exitY=0.5;exitDx=0;exitDy=0;entryX=0;entryY=0.5;entryDx=0;entryDy=0;curved=0;" edge="1" parent="1" source="20Seymmh2c90RRw8AyVu-207" target="20Seymmh2c90RRw8AyVu-211">
          <mxGeometry relative="1" as="geometry" />
        </mxCell>
        <mxCell id="20Seymmh2c90RRw8AyVu-207" value="" style="ellipse;whiteSpace=wrap;html=1;aspect=fixed;" vertex="1" parent="1">
          <mxGeometry x="79" y="220" width="30" height="30" as="geometry" />
        </mxCell>
        <mxCell id="20Seymmh2c90RRw8AyVu-212" value="" style="endArrow=none;dashed=1;html=1;rounded=0;entryX=0;entryY=0.5;entryDx=0;entryDy=0;strokeColor=light-dark(#000000,#FF99FF);" edge="1" parent="1" target="20Seymmh2c90RRw8AyVu-211">
          <mxGeometry width="50" height="50" relative="1" as="geometry">
            <mxPoint x="10" y="284.5" as="sourcePoint" />
            <mxPoint x="700" y="284.5" as="targetPoint" />
          </mxGeometry>
        </mxCell>
        <mxCell id="20Seymmh2c90RRw8AyVu-249" style="edgeStyle=orthogonalEdgeStyle;rounded=1;orthogonalLoop=1;jettySize=auto;html=1;exitX=1;exitY=0.5;exitDx=0;exitDy=0;entryX=0;entryY=0.5;entryDx=0;entryDy=0;curved=0;" edge="1" parent="1" source="20Seymmh2c90RRw8AyVu-211" target="20Seymmh2c90RRw8AyVu-248">
          <mxGeometry relative="1" as="geometry" />
        </mxCell>
        <mxCell id="20Seymmh2c90RRw8AyVu-211" value="" style="ellipse;whiteSpace=wrap;html=1;aspect=fixed;verticalAlign=bottom;" vertex="1" parent="1">
          <mxGeometry x="149" y="270" width="30" height="30" as="geometry" />
        </mxCell>
        <mxCell id="20Seymmh2c90RRw8AyVu-215" value="" style="endArrow=none;dashed=1;html=1;rounded=0;entryX=0;entryY=0.5;entryDx=0;entryDy=0;strokeColor=light-dark(#000000,#CCFF99);" edge="1" parent="1" source="20Seymmh2c90RRw8AyVu-248" target="20Seymmh2c90RRw8AyVu-214">
          <mxGeometry width="50" height="50" relative="1" as="geometry">
            <mxPoint x="110" y="235" as="sourcePoint" />
            <mxPoint x="700" y="234.5" as="targetPoint" />
          </mxGeometry>
        </mxCell>
        <mxCell id="20Seymmh2c90RRw8AyVu-218" style="edgeStyle=orthogonalEdgeStyle;rounded=1;orthogonalLoop=1;jettySize=auto;html=1;exitX=1;exitY=0.5;exitDx=0;exitDy=0;entryX=0.5;entryY=1;entryDx=0;entryDy=0;curved=0;" edge="1" parent="1" source="20Seymmh2c90RRw8AyVu-214" target="20Seymmh2c90RRw8AyVu-217">
          <mxGeometry relative="1" as="geometry" />
        </mxCell>
        <mxCell id="20Seymmh2c90RRw8AyVu-214" value="" style="ellipse;whiteSpace=wrap;html=1;aspect=fixed;verticalAlign=bottom;" vertex="1" parent="1">
          <mxGeometry x="368" y="220" width="30" height="30" as="geometry" />
        </mxCell>
        <mxCell id="20Seymmh2c90RRw8AyVu-221" style="edgeStyle=orthogonalEdgeStyle;rounded=1;orthogonalLoop=1;jettySize=auto;html=1;exitX=1;exitY=0.5;exitDx=0;exitDy=0;entryX=0;entryY=0.5;entryDx=0;entryDy=0;curved=0;" edge="1" parent="1" source="20Seymmh2c90RRw8AyVu-217" target="20Seymmh2c90RRw8AyVu-219">
          <mxGeometry relative="1" as="geometry" />
        </mxCell>
        <mxCell id="20Seymmh2c90RRw8AyVu-220" value="" style="endArrow=none;dashed=1;html=1;rounded=0;entryX=0;entryY=0.5;entryDx=0;entryDy=0;strokeColor=light-dark(#000000,#FFCC99);" edge="1" parent="1" target="20Seymmh2c90RRw8AyVu-219">
          <mxGeometry width="50" height="50" relative="1" as="geometry">
            <mxPoint x="10" y="184.5" as="sourcePoint" />
            <mxPoint x="700" y="184.5" as="targetPoint" />
          </mxGeometry>
        </mxCell>
        <mxCell id="20Seymmh2c90RRw8AyVu-224" style="edgeStyle=orthogonalEdgeStyle;rounded=1;orthogonalLoop=1;jettySize=auto;html=1;exitX=1;exitY=0.5;exitDx=0;exitDy=0;entryX=0;entryY=0.5;entryDx=0;entryDy=0;curved=0;" edge="1" parent="1" source="20Seymmh2c90RRw8AyVu-219" target="20Seymmh2c90RRw8AyVu-222">
          <mxGeometry relative="1" as="geometry" />
        </mxCell>
        <mxCell id="20Seymmh2c90RRw8AyVu-219" value="" style="ellipse;whiteSpace=wrap;html=1;aspect=fixed;verticalAlign=bottom;" vertex="1" parent="1">
          <mxGeometry x="482" y="170" width="30" height="30" as="geometry" />
        </mxCell>
        <mxCell id="20Seymmh2c90RRw8AyVu-223" value="" style="endArrow=none;dashed=1;html=1;rounded=0;entryX=0;entryY=0.5;entryDx=0;entryDy=0;strokeColor=light-dark(#000000,#FFCC99);" edge="1" parent="1" target="20Seymmh2c90RRw8AyVu-222">
          <mxGeometry width="50" height="50" relative="1" as="geometry">
            <mxPoint x="10" y="154.5" as="sourcePoint" />
            <mxPoint x="700" y="154.5" as="targetPoint" />
          </mxGeometry>
        </mxCell>
        <mxCell id="20Seymmh2c90RRw8AyVu-226" style="edgeStyle=orthogonalEdgeStyle;rounded=1;orthogonalLoop=1;jettySize=auto;html=1;exitX=1;exitY=0.5;exitDx=0;exitDy=0;entryX=0;entryY=0.5;entryDx=0;entryDy=0;curved=0;" edge="1" parent="1" source="20Seymmh2c90RRw8AyVu-222" target="20Seymmh2c90RRw8AyVu-225">
          <mxGeometry relative="1" as="geometry" />
        </mxCell>
        <mxCell id="20Seymmh2c90RRw8AyVu-222" value="" style="ellipse;whiteSpace=wrap;html=1;aspect=fixed;verticalAlign=bottom;" vertex="1" parent="1">
          <mxGeometry x="546" y="140" width="30" height="30" as="geometry" />
        </mxCell>
        <mxCell id="20Seymmh2c90RRw8AyVu-217" value="" style="ellipse;whiteSpace=wrap;html=1;aspect=fixed;verticalAlign=bottom;" vertex="1" parent="1">
          <mxGeometry x="417" y="140" width="30" height="30" as="geometry" />
        </mxCell>
        <mxCell id="20Seymmh2c90RRw8AyVu-229" style="edgeStyle=orthogonalEdgeStyle;rounded=1;orthogonalLoop=1;jettySize=auto;html=1;exitX=1;exitY=0.5;exitDx=0;exitDy=0;entryX=0;entryY=0.5;entryDx=0;entryDy=0;curved=0;" edge="1" parent="1" source="20Seymmh2c90RRw8AyVu-225" target="20Seymmh2c90RRw8AyVu-227">
          <mxGeometry relative="1" as="geometry" />
        </mxCell>
        <mxCell id="20Seymmh2c90RRw8AyVu-232" style="edgeStyle=orthogonalEdgeStyle;rounded=1;orthogonalLoop=1;jettySize=auto;html=1;exitX=1;exitY=0.5;exitDx=0;exitDy=0;entryX=0;entryY=0.5;entryDx=0;entryDy=0;curved=0;" edge="1" parent="1" source="20Seymmh2c90RRw8AyVu-225" target="20Seymmh2c90RRw8AyVu-230">
          <mxGeometry relative="1" as="geometry" />
        </mxCell>
        <mxCell id="20Seymmh2c90RRw8AyVu-228" value="" style="endArrow=none;dashed=1;html=1;rounded=0;entryX=0;entryY=0.5;entryDx=0;entryDy=0;strokeColor=light-dark(#000000,#CCFF99);" edge="1" parent="1" source="20Seymmh2c90RRw8AyVu-214" target="20Seymmh2c90RRw8AyVu-227">
          <mxGeometry width="50" height="50" relative="1" as="geometry">
            <mxPoint x="250" y="235" as="sourcePoint" />
            <mxPoint x="700" y="234.5" as="targetPoint" />
          </mxGeometry>
        </mxCell>
        <mxCell id="20Seymmh2c90RRw8AyVu-227" value="" style="ellipse;whiteSpace=wrap;html=1;aspect=fixed;verticalAlign=bottom;" vertex="1" parent="1">
          <mxGeometry x="703" y="220" width="30" height="30" as="geometry" />
        </mxCell>
        <mxCell id="20Seymmh2c90RRw8AyVu-231" value="" style="endArrow=none;dashed=1;html=1;rounded=0;entryX=0;entryY=0.5;entryDx=0;entryDy=0;strokeColor=light-dark(#000000,#FF9999);" edge="1" parent="1" target="20Seymmh2c90RRw8AyVu-230">
          <mxGeometry width="50" height="50" relative="1" as="geometry">
            <mxPoint x="10" y="104.5" as="sourcePoint" />
            <mxPoint x="700" y="104.5" as="targetPoint" />
          </mxGeometry>
        </mxCell>
        <mxCell id="20Seymmh2c90RRw8AyVu-234" style="edgeStyle=orthogonalEdgeStyle;rounded=1;orthogonalLoop=1;jettySize=auto;html=1;exitX=1;exitY=0.5;exitDx=0;exitDy=0;entryX=0;entryY=0.5;entryDx=0;entryDy=0;curved=0;" edge="1" parent="1" source="20Seymmh2c90RRw8AyVu-230" target="20Seymmh2c90RRw8AyVu-233">
          <mxGeometry relative="1" as="geometry" />
        </mxCell>
        <mxCell id="20Seymmh2c90RRw8AyVu-230" value="" style="ellipse;whiteSpace=wrap;html=1;aspect=fixed;verticalAlign=bottom;" vertex="1" parent="1">
          <mxGeometry x="763" y="90" width="30" height="30" as="geometry" />
        </mxCell>
        <mxCell id="20Seymmh2c90RRw8AyVu-238" style="edgeStyle=orthogonalEdgeStyle;rounded=1;orthogonalLoop=1;jettySize=auto;html=1;exitX=1;exitY=0.5;exitDx=0;exitDy=0;entryX=0;entryY=0.5;entryDx=0;entryDy=0;curved=0;" edge="1" parent="1" source="20Seymmh2c90RRw8AyVu-233" target="20Seymmh2c90RRw8AyVu-236">
          <mxGeometry relative="1" as="geometry" />
        </mxCell>
        <mxCell id="20Seymmh2c90RRw8AyVu-233" value="" style="ellipse;whiteSpace=wrap;html=1;aspect=fixed;verticalAlign=bottom;" vertex="1" parent="1">
          <mxGeometry x="883" y="50" width="30" height="30" as="geometry" />
        </mxCell>
        <mxCell id="20Seymmh2c90RRw8AyVu-236" value="" style="ellipse;whiteSpace=wrap;html=1;aspect=fixed;verticalAlign=bottom;" vertex="1" parent="1">
          <mxGeometry x="982" y="220" width="30" height="30" as="geometry" />
        </mxCell>
        <mxCell id="20Seymmh2c90RRw8AyVu-239" value="Feature A" style="text;strokeColor=none;align=center;fillColor=none;html=1;verticalAlign=middle;whiteSpace=wrap;rounded=0;" vertex="1" parent="1">
          <mxGeometry x="134" y="300" width="60" height="30" as="geometry" />
        </mxCell>
        <mxCell id="20Seymmh2c90RRw8AyVu-240" value="v1.0.0-rc1" style="text;strokeColor=none;align=center;fillColor=none;html=1;verticalAlign=middle;whiteSpace=wrap;rounded=0;" vertex="1" parent="1">
          <mxGeometry x="402" y="113" width="60" height="30" as="geometry" />
        </mxCell>
        <mxCell id="20Seymmh2c90RRw8AyVu-241" value="" style="group" vertex="1" connectable="0" parent="1">
          <mxGeometry x="1051" y="50" width="100" height="250" as="geometry" />
        </mxCell>
        <mxCell id="20Seymmh2c90RRw8AyVu-178" value="master" style="rounded=0;whiteSpace=wrap;html=1;strokeColor=light-dark(#000000,#9999FF);" vertex="1" parent="20Seymmh2c90RRw8AyVu-241">
          <mxGeometry width="100" height="30" as="geometry" />
        </mxCell>
        <mxCell id="20Seymmh2c90RRw8AyVu-179" value="hotfix" style="rounded=0;whiteSpace=wrap;html=1;strokeColor=light-dark(#000000,#FF9999);" vertex="1" parent="20Seymmh2c90RRw8AyVu-241">
          <mxGeometry y="40" width="100" height="30" as="geometry" />
        </mxCell>
        <mxCell id="20Seymmh2c90RRw8AyVu-180" value="release-v1.0.0" style="rounded=0;whiteSpace=wrap;html=1;strokeColor=light-dark(#000000,#FFCC99);" vertex="1" parent="20Seymmh2c90RRw8AyVu-241">
          <mxGeometry y="90" width="100" height="30" as="geometry" />
        </mxCell>
        <mxCell id="20Seymmh2c90RRw8AyVu-181" value="release/fix" style="rounded=0;whiteSpace=wrap;html=1;strokeColor=light-dark(#000000,#FFCC99);" vertex="1" parent="20Seymmh2c90RRw8AyVu-241">
          <mxGeometry y="120" width="100" height="30" as="geometry" />
        </mxCell>
        <mxCell id="20Seymmh2c90RRw8AyVu-183" value="develop" style="rounded=0;whiteSpace=wrap;html=1;strokeColor=light-dark(#000000,#99FF99);" vertex="1" parent="20Seymmh2c90RRw8AyVu-241">
          <mxGeometry y="170" width="100" height="30" as="geometry" />
        </mxCell>
        <mxCell id="20Seymmh2c90RRw8AyVu-184" value="feature/*" style="rounded=0;whiteSpace=wrap;html=1;strokeColor=light-dark(#000000,#FF99FF);" vertex="1" parent="20Seymmh2c90RRw8AyVu-241">
          <mxGeometry y="220" width="100" height="30" as="geometry" />
        </mxCell>
        <mxCell id="20Seymmh2c90RRw8AyVu-242" value="" style="endArrow=none;dashed=1;html=1;rounded=0;entryX=0;entryY=0.5;entryDx=0;entryDy=0;strokeColor=light-dark(#000000,#9999FF);" edge="1" parent="1" source="20Seymmh2c90RRw8AyVu-204" target="20Seymmh2c90RRw8AyVu-225">
          <mxGeometry width="50" height="50" relative="1" as="geometry">
            <mxPoint x="40" y="65" as="sourcePoint" />
            <mxPoint x="720" y="65" as="targetPoint" />
          </mxGeometry>
        </mxCell>
        <mxCell id="20Seymmh2c90RRw8AyVu-225" value="" style="ellipse;whiteSpace=wrap;html=1;aspect=fixed;verticalAlign=bottom;" vertex="1" parent="1">
          <mxGeometry x="633" y="50" width="30" height="30" as="geometry" />
        </mxCell>
        <mxCell id="20Seymmh2c90RRw8AyVu-243" value="v1.0.0-rc2" style="text;strokeColor=none;align=center;fillColor=none;html=1;verticalAlign=middle;whiteSpace=wrap;rounded=0;" vertex="1" parent="1">
          <mxGeometry x="531" y="113" width="60" height="30" as="geometry" />
        </mxCell>
        <mxCell id="20Seymmh2c90RRw8AyVu-245" value="v1.0.0" style="text;strokeColor=none;align=center;fillColor=none;html=1;verticalAlign=middle;whiteSpace=wrap;rounded=0;" vertex="1" parent="1">
          <mxGeometry x="618" y="22" width="60" height="30" as="geometry" />
        </mxCell>
        <mxCell id="20Seymmh2c90RRw8AyVu-246" value="hotfix/v1.0.0" style="text;strokeColor=none;align=center;fillColor=none;html=1;verticalAlign=middle;whiteSpace=wrap;rounded=0;" vertex="1" parent="1">
          <mxGeometry x="730.5" y="113" width="95" height="30" as="geometry" />
        </mxCell>
        <mxCell id="20Seymmh2c90RRw8AyVu-247" value="v1.0.1" style="text;strokeColor=none;align=center;fillColor=none;html=1;verticalAlign=middle;whiteSpace=wrap;rounded=0;" vertex="1" parent="1">
          <mxGeometry x="868" y="22" width="60" height="30" as="geometry" />
        </mxCell>
        <mxCell id="20Seymmh2c90RRw8AyVu-250" value="" style="endArrow=none;dashed=1;html=1;rounded=0;entryX=0;entryY=0.5;entryDx=0;entryDy=0;strokeColor=light-dark(#000000,#CCFF99);" edge="1" parent="1" source="20Seymmh2c90RRw8AyVu-207" target="20Seymmh2c90RRw8AyVu-248">
          <mxGeometry width="50" height="50" relative="1" as="geometry">
            <mxPoint x="109" y="235" as="sourcePoint" />
            <mxPoint x="318" y="235" as="targetPoint" />
          </mxGeometry>
        </mxCell>
        <mxCell id="20Seymmh2c90RRw8AyVu-253" style="edgeStyle=orthogonalEdgeStyle;rounded=1;orthogonalLoop=1;jettySize=auto;html=1;exitX=1;exitY=0.5;exitDx=0;exitDy=0;entryX=0;entryY=0.5;entryDx=0;entryDy=0;curved=0;" edge="1" parent="1" source="20Seymmh2c90RRw8AyVu-248" target="20Seymmh2c90RRw8AyVu-251">
          <mxGeometry relative="1" as="geometry" />
        </mxCell>
        <mxCell id="20Seymmh2c90RRw8AyVu-248" value="" style="ellipse;whiteSpace=wrap;html=1;aspect=fixed;verticalAlign=bottom;" vertex="1" parent="1">
          <mxGeometry x="220" y="220" width="30" height="30" as="geometry" />
        </mxCell>
        <mxCell id="20Seymmh2c90RRw8AyVu-252" value="" style="endArrow=none;dashed=1;html=1;rounded=0;entryX=0;entryY=0.5;entryDx=0;entryDy=0;strokeColor=light-dark(#000000,#FF99FF);" edge="1" parent="1" source="20Seymmh2c90RRw8AyVu-211" target="20Seymmh2c90RRw8AyVu-251">
          <mxGeometry width="50" height="50" relative="1" as="geometry">
            <mxPoint x="179" y="285" as="sourcePoint" />
            <mxPoint x="960" y="285" as="targetPoint" />
          </mxGeometry>
        </mxCell>
        <mxCell id="20Seymmh2c90RRw8AyVu-254" style="edgeStyle=orthogonalEdgeStyle;rounded=1;orthogonalLoop=1;jettySize=auto;html=1;exitX=1;exitY=0.5;exitDx=0;exitDy=0;entryX=0;entryY=0.5;entryDx=0;entryDy=0;curved=0;" edge="1" parent="1" source="20Seymmh2c90RRw8AyVu-251" target="20Seymmh2c90RRw8AyVu-214">
          <mxGeometry relative="1" as="geometry" />
        </mxCell>
        <mxCell id="20Seymmh2c90RRw8AyVu-251" value="" style="ellipse;whiteSpace=wrap;html=1;aspect=fixed;verticalAlign=bottom;" vertex="1" parent="1">
          <mxGeometry x="290" y="270" width="30" height="30" as="geometry" />
        </mxCell>
        <mxCell id="20Seymmh2c90RRw8AyVu-255" value="Feature B" style="text;strokeColor=none;align=center;fillColor=none;html=1;verticalAlign=middle;whiteSpace=wrap;rounded=0;" vertex="1" parent="1">
          <mxGeometry x="275" y="300" width="60" height="30" as="geometry" />
        </mxCell>
      </root>
    </mxGraphModel>
  </diagram>
  <diagram id="eWztX-HKV9PbQhigdnBN" name="simple gitflow">
    <mxGraphModel dx="1084" dy="813" grid="1" gridSize="10" guides="1" tooltips="1" connect="1" arrows="1" fold="1" page="1" pageScale="1" pageWidth="850" pageHeight="1100" math="0" shadow="0">
      <root>
        <mxCell id="QUeHIoVe-N7WYJK59KCd-0" />
        <mxCell id="QUeHIoVe-N7WYJK59KCd-1" parent="QUeHIoVe-N7WYJK59KCd-0" />
        <mxCell id="QUeHIoVe-N7WYJK59KCd-26" value="" style="edgeStyle=orthogonalEdgeStyle;orthogonalLoop=1;jettySize=auto;html=1;dashed=1;startFill=0;endArrow=none;endFill=0;strokeColor=#6c8ebf;fillColor=#dae8fc;" parent="QUeHIoVe-N7WYJK59KCd-1" source="QUeHIoVe-N7WYJK59KCd-14" target="QUeHIoVe-N7WYJK59KCd-25" edge="1">
          <mxGeometry relative="1" as="geometry" />
        </mxCell>
        <mxCell id="QUeHIoVe-N7WYJK59KCd-40" style="edgeStyle=orthogonalEdgeStyle;orthogonalLoop=1;jettySize=auto;html=1;entryX=0;entryY=0.5;entryDx=0;entryDy=0;dashed=1;startFill=0;endArrow=none;endFill=0;strokeColor=#6c8ebf;fillColor=#dae8fc;" parent="QUeHIoVe-N7WYJK59KCd-1" source="QUeHIoVe-N7WYJK59KCd-14" target="QUeHIoVe-N7WYJK59KCd-32" edge="1">
          <mxGeometry relative="1" as="geometry">
            <Array as="points">
              <mxPoint x="55" y="95" />
            </Array>
          </mxGeometry>
        </mxCell>
        <mxCell id="QUeHIoVe-N7WYJK59KCd-14" value="V1.0" style="ellipse;whiteSpace=wrap;html=1;aspect=fixed;fillColor=#dae8fc;strokeColor=#6c8ebf;labelPosition=center;verticalLabelPosition=top;align=center;verticalAlign=bottom;" parent="QUeHIoVe-N7WYJK59KCd-1" vertex="1">
          <mxGeometry x="40" y="40" width="30" height="30" as="geometry" />
        </mxCell>
        <mxCell id="QUeHIoVe-N7WYJK59KCd-28" value="" style="edgeStyle=orthogonalEdgeStyle;orthogonalLoop=1;jettySize=auto;html=1;dashed=1;startFill=0;endArrow=none;endFill=0;strokeColor=#6c8ebf;fillColor=#dae8fc;" parent="QUeHIoVe-N7WYJK59KCd-1" source="QUeHIoVe-N7WYJK59KCd-25" target="QUeHIoVe-N7WYJK59KCd-27" edge="1">
          <mxGeometry relative="1" as="geometry" />
        </mxCell>
        <mxCell id="QUeHIoVe-N7WYJK59KCd-25" value="V2.0" style="ellipse;whiteSpace=wrap;html=1;aspect=fixed;fillColor=#dae8fc;strokeColor=#6c8ebf;labelPosition=center;verticalLabelPosition=top;align=center;verticalAlign=bottom;" parent="QUeHIoVe-N7WYJK59KCd-1" vertex="1">
          <mxGeometry x="410" y="40" width="30" height="30" as="geometry" />
        </mxCell>
        <mxCell id="QUeHIoVe-N7WYJK59KCd-30" value="" style="edgeStyle=orthogonalEdgeStyle;orthogonalLoop=1;jettySize=auto;html=1;dashed=1;startFill=0;endArrow=none;endFill=0;strokeColor=#6c8ebf;fillColor=#dae8fc;" parent="QUeHIoVe-N7WYJK59KCd-1" source="QUeHIoVe-N7WYJK59KCd-27" target="QUeHIoVe-N7WYJK59KCd-29" edge="1">
          <mxGeometry relative="1" as="geometry" />
        </mxCell>
        <mxCell id="QUeHIoVe-N7WYJK59KCd-27" value="V2.1" style="ellipse;whiteSpace=wrap;html=1;aspect=fixed;fillColor=#dae8fc;strokeColor=#6c8ebf;labelPosition=center;verticalLabelPosition=top;align=center;verticalAlign=bottom;" parent="QUeHIoVe-N7WYJK59KCd-1" vertex="1">
          <mxGeometry x="510" y="40" width="30" height="30" as="geometry" />
        </mxCell>
        <mxCell id="QUeHIoVe-N7WYJK59KCd-29" value="Master" style="rounded=0;whiteSpace=wrap;html=1;fontFamily=Helvetica;fontSize=12;fontColor=#000000;align=center;strokeColor=#6c8ebf;fillColor=#dae8fc;" parent="QUeHIoVe-N7WYJK59KCd-1" vertex="1">
          <mxGeometry x="610" y="40" width="110" height="30" as="geometry" />
        </mxCell>
        <mxCell id="QUeHIoVe-N7WYJK59KCd-34" value="" style="edgeStyle=orthogonalEdgeStyle;orthogonalLoop=1;jettySize=auto;html=1;dashed=1;startFill=0;endArrow=none;endFill=0;strokeColor=#9673a6;fillColor=#e1d5e7;" parent="QUeHIoVe-N7WYJK59KCd-1" source="QUeHIoVe-N7WYJK59KCd-32" target="QUeHIoVe-N7WYJK59KCd-33" edge="1">
          <mxGeometry relative="1" as="geometry" />
        </mxCell>
        <mxCell id="QUeHIoVe-N7WYJK59KCd-32" value="" style="ellipse;whiteSpace=wrap;html=1;aspect=fixed;fillColor=#e1d5e7;strokeColor=#9673a6;labelPosition=center;verticalLabelPosition=top;align=center;verticalAlign=bottom;" parent="QUeHIoVe-N7WYJK59KCd-1" vertex="1">
          <mxGeometry x="90" y="80" width="30" height="30" as="geometry" />
        </mxCell>
        <mxCell id="QUeHIoVe-N7WYJK59KCd-36" value="" style="edgeStyle=orthogonalEdgeStyle;orthogonalLoop=1;jettySize=auto;html=1;dashed=1;startFill=0;endArrow=none;endFill=0;strokeColor=#6c8ebf;fillColor=#dae8fc;" parent="QUeHIoVe-N7WYJK59KCd-1" source="QUeHIoVe-N7WYJK59KCd-33" target="QUeHIoVe-N7WYJK59KCd-35" edge="1">
          <mxGeometry relative="1" as="geometry" />
        </mxCell>
        <mxCell id="QUeHIoVe-N7WYJK59KCd-33" value="" style="ellipse;whiteSpace=wrap;html=1;aspect=fixed;fillColor=#e1d5e7;strokeColor=#9673a6;labelPosition=center;verticalLabelPosition=top;align=center;verticalAlign=bottom;" parent="QUeHIoVe-N7WYJK59KCd-1" vertex="1">
          <mxGeometry x="250" y="80" width="30" height="30" as="geometry" />
        </mxCell>
        <mxCell id="QUeHIoVe-N7WYJK59KCd-41" style="edgeStyle=orthogonalEdgeStyle;orthogonalLoop=1;jettySize=auto;html=1;exitX=1;exitY=0.5;exitDx=0;exitDy=0;entryX=0;entryY=0.5;entryDx=0;entryDy=0;dashed=1;startFill=0;endArrow=none;endFill=0;strokeColor=#6c8ebf;fillColor=#dae8fc;" parent="QUeHIoVe-N7WYJK59KCd-1" source="QUeHIoVe-N7WYJK59KCd-35" target="QUeHIoVe-N7WYJK59KCd-25" edge="1">
          <mxGeometry relative="1" as="geometry" />
        </mxCell>
        <mxCell id="QUeHIoVe-N7WYJK59KCd-35" value="" style="ellipse;whiteSpace=wrap;html=1;aspect=fixed;fillColor=#e1d5e7;strokeColor=#9673a6;labelPosition=center;verticalLabelPosition=top;align=center;verticalAlign=bottom;" parent="QUeHIoVe-N7WYJK59KCd-1" vertex="1">
          <mxGeometry x="340" y="80" width="30" height="30" as="geometry" />
        </mxCell>
      </root>
    </mxGraphModel>
  </diagram>
</mxfile>
